<svg width="55" height="55" viewBox="0 0 55 55" fill="none" xmlns="http://www.w3.org/2000/svg">
<path fill-rule="evenodd" clip-rule="evenodd" d="M27.5 0C12.3122 0 0 12.3122 0 27.5C0 42.6878 12.3122 55 27.5 55C42.6878 55 55 42.6878 55 27.5C55 12.3122 42.6878 0 27.5 0ZM19.5 22.5C18.7624 22.5 18.0847 22.8805 17.7367 23.4903C17.3886 24.1 17.4268 24.8398 17.8359 25.415L25.836 36.665C26.2068 37.1868 26.8313 37.5 27.5 37.5C28.1688 37.5 28.7933 37.1868 29.164 36.665L37.164 25.415C37.5733 24.8398 37.6115 24.1 37.2633 23.4903C36.9153 22.8805 36.2375 22.5 35.5 22.5H19.5Z" fill="#293139"/>
</svg>
