<svg width="303" height="28" viewBox="0 0 303 28" fill="#DCDCDC" xmlns="http://www.w3.org/2000/svg">
<path d="M302.585 13.9091C302.585 16.8238 302.018 19.2826 300.884 21.2855C299.751 23.2798 298.221 24.7926 296.295 25.8238C294.369 26.8466 292.221 27.3579 289.852 27.3579C287.465 27.3579 285.309 26.8423 283.383 25.8111C281.465 24.7713 279.94 23.2542 278.806 21.2599C277.681 19.2571 277.119 16.8068 277.119 13.9091C277.119 10.9943 277.681 8.53975 278.806 6.54543C279.94 4.54259 281.465 3.02981 283.383 2.00708C285.309 0.97583 287.465 0.460205 289.852 0.460205C292.221 0.460205 294.369 0.97583 296.295 2.00708C298.221 3.02981 299.751 4.54259 300.884 6.54543C302.018 8.53975 302.585 10.9943 302.585 13.9091ZM295.272 13.9091C295.272 12.3409 295.063 11.0199 294.646 9.946C294.237 8.86361 293.627 8.04543 292.818 7.49146C292.016 6.92896 291.028 6.64771 289.852 6.64771C288.675 6.64771 287.683 6.92896 286.873 7.49146C286.072 8.04543 285.462 8.86361 285.045 9.946C284.636 11.0199 284.431 12.3409 284.431 13.9091C284.431 15.4773 284.636 16.8025 285.045 17.8849C285.462 18.9588 286.072 19.777 286.873 20.3395C287.683 20.8934 288.675 21.1704 289.852 21.1704C291.028 21.1704 292.016 20.8934 292.818 20.3395C293.627 19.777 294.237 18.9588 294.646 17.8849C295.063 16.8025 295.272 15.4773 295.272 13.9091Z" fill="#none"/>
<path d="M243.502 0.818115H252.348L258.434 15.6477H258.741L264.826 0.818115H273.672V26.9999H266.718V11.8636H266.513L260.684 26.7954H256.491L250.661 11.7613H250.456V26.9999H243.502V0.818115Z" fill="#none"/>
<path d="M240.033 13.9091C240.033 16.8238 239.466 19.2826 238.333 21.2855C237.199 23.2798 235.67 24.7926 233.743 25.8238C231.817 26.8466 229.67 27.3579 227.3 27.3579C224.914 27.3579 222.758 26.8423 220.831 25.8111C218.914 24.7713 217.388 23.2542 216.255 21.2599C215.13 19.2571 214.567 16.8068 214.567 13.9091C214.567 10.9943 215.13 8.53975 216.255 6.54543C217.388 4.54259 218.914 3.02981 220.831 2.00708C222.758 0.97583 224.914 0.460205 227.3 0.460205C229.67 0.460205 231.817 0.97583 233.743 2.00708C235.67 3.02981 237.199 4.54259 238.333 6.54543C239.466 8.53975 240.033 10.9943 240.033 13.9091ZM232.721 13.9091C232.721 12.3409 232.512 11.0199 232.094 9.946C231.685 8.86361 231.076 8.04543 230.266 7.49146C229.465 6.92896 228.476 6.64771 227.3 6.64771C226.124 6.64771 225.131 6.92896 224.322 7.49146C223.52 8.04543 222.911 8.86361 222.493 9.946C222.084 11.0199 221.88 12.3409 221.88 13.9091C221.88 15.4773 222.084 16.8025 222.493 17.8849C222.911 18.9588 223.52 19.777 224.322 20.3395C225.131 20.8934 226.124 21.1704 227.3 21.1704C228.476 21.1704 229.465 20.8934 230.266 20.3395C231.076 19.777 231.685 18.9588 232.094 17.8849C232.512 16.8025 232.721 15.4773 232.721 13.9091Z" fill="#none"/>
<path d="M195.843 26.9999V0.818115H202.951V21.2727H213.536V26.9999H195.843Z" fill="#none"/>
<path d="M173.811 26.9999H166.141L174.783 0.818115H184.499L193.141 26.9999H185.471L179.743 8.02834H179.539L173.811 26.9999ZM172.38 16.6704H186.8V21.9886H172.38V16.6704Z" fill="#none"/>
<path d="M146.475 26.9999V0.818115H157.776C159.719 0.818115 161.419 1.20164 162.877 1.96868C164.334 2.73573 165.468 3.81385 166.277 5.20306C167.087 6.59226 167.492 8.21584 167.492 10.0738C167.492 11.9488 167.074 13.5724 166.239 14.9445C165.412 16.3167 164.249 17.3735 162.749 18.115C161.258 18.8565 159.515 19.2272 157.52 19.2272H150.77V13.7045H156.088C156.924 13.7045 157.635 13.5596 158.223 13.2698C158.82 12.9715 159.276 12.5496 159.591 12.0042C159.915 11.4587 160.077 10.8153 160.077 10.0738C160.077 9.3238 159.915 8.68459 159.591 8.15618C159.276 7.61925 158.82 7.21016 158.223 6.92891C157.635 6.63914 156.924 6.49425 156.088 6.49425H153.583V26.9999H146.475Z" fill="#none"/>
<path d="M135.654 13.9091C135.654 16.8238 135.088 19.2826 133.954 21.2855C132.82 23.2798 131.291 24.7926 129.364 25.8238C127.438 26.8466 125.291 27.3579 122.921 27.3579C120.535 27.3579 118.379 26.8423 116.453 25.8111C114.535 24.7713 113.009 23.2542 111.876 21.2599C110.751 19.2571 110.188 16.8068 110.188 13.9091C110.188 10.9943 110.751 8.53975 111.876 6.54543C113.009 4.54259 114.535 3.02981 116.453 2.00708C118.379 0.97583 120.535 0.460205 122.921 0.460205C125.291 0.460205 127.438 0.97583 129.364 2.00708C131.291 3.02981 132.82 4.54259 133.954 6.54543C135.088 8.53975 135.654 10.9943 135.654 13.9091ZM128.342 13.9091C128.342 12.3409 128.133 11.0199 127.715 9.946C127.306 8.86361 126.697 8.04543 125.887 7.49146C125.086 6.92896 124.097 6.64771 122.921 6.64771C121.745 6.64771 120.752 6.92896 119.943 7.49146C119.141 8.04543 118.532 8.86361 118.114 9.946C117.705 11.0199 117.501 12.3409 117.501 13.9091C117.501 15.4773 117.705 16.8025 118.114 17.8849C118.532 18.9588 119.141 19.777 119.943 20.3395C120.752 20.8934 121.745 21.1704 122.921 21.1704C124.097 21.1704 125.086 20.8934 125.887 20.3395C126.697 19.777 127.306 18.9588 127.715 17.8849C128.133 16.8025 128.342 15.4773 128.342 13.9091Z" fill="#none"/>
<path d="M106.742 0.818115V26.9999H99.6341V0.818115H106.742Z" fill="#none"/>
<path d="M88.6483 9.46021C88.5375 9.0085 88.3628 8.61219 88.1242 8.27128C87.8855 7.92185 87.5872 7.62782 87.2293 7.38918C86.8798 7.14202 86.4708 6.95879 86.002 6.83947C85.5418 6.71163 85.0347 6.64771 84.4807 6.64771C83.2875 6.64771 82.2691 6.93322 81.4253 7.50424C80.5901 8.07526 79.9509 8.89771 79.5077 9.97157C79.073 11.0454 78.8557 12.3409 78.8557 13.8579C78.8557 15.392 79.0645 16.7045 79.4821 17.7954C79.8997 18.8863 80.5219 19.7216 81.3486 20.3011C82.1753 20.8807 83.2023 21.1704 84.4296 21.1704C85.5119 21.1704 86.4111 21.0128 87.127 20.6974C87.8514 20.3821 88.3926 19.9346 88.7506 19.3551C89.1085 18.7755 89.2875 18.0937 89.2875 17.3096L90.5148 17.4375H84.5318V12.375H96.1398V16.0057C96.1398 18.392 95.6327 20.4332 94.6185 22.1292C93.6128 23.8167 92.2236 25.1122 90.4509 26.0156C88.6867 26.9105 86.6625 27.3579 84.3784 27.3579C81.8301 27.3579 79.5929 26.8167 77.6668 25.7344C75.7406 24.652 74.2364 23.1094 73.154 21.1065C72.0801 19.1037 71.5432 16.7216 71.5432 13.9602C71.5432 11.7954 71.8713 9.87782 72.5276 8.20737C73.1923 6.53691 74.1128 5.1264 75.2889 3.97583C76.4651 2.81674 77.8244 1.94316 79.3671 1.35509C80.9097 0.758501 82.5631 0.460205 84.3273 0.460205C85.8784 0.460205 87.3188 0.681797 88.6483 1.12498C89.9864 1.55964 91.1668 2.1818 92.1895 2.99146C93.2208 3.79259 94.0517 4.74288 94.6824 5.84231C95.3131 6.94174 95.6966 8.14771 95.833 9.46021H88.6483Z" fill="#none"/>
<path d="M47.4186 26.9999V0.818115H58.7197C60.6629 0.818115 62.3632 1.17181 63.8206 1.8792C65.278 2.58658 66.4115 3.60505 67.2212 4.93459C68.0308 6.26414 68.4356 7.85789 68.4356 9.71584C68.4356 11.5908 68.018 13.1718 67.1828 14.4587C66.3561 15.7457 65.1927 16.7173 63.6927 17.3735C62.2013 18.0298 60.4584 18.3579 58.4641 18.3579H51.7141V12.8352H57.0322C57.8675 12.8352 58.5791 12.7329 59.1672 12.5283C59.7638 12.3153 60.2197 11.9786 60.5351 11.5184C60.8589 11.0582 61.0209 10.4573 61.0209 9.71584C61.0209 8.96584 60.8589 8.35647 60.5351 7.88772C60.2197 7.41045 59.7638 7.06101 59.1672 6.83942C58.5791 6.60931 57.8675 6.49425 57.0322 6.49425H54.5266V26.9999H47.4186ZM62.7595 14.9829L69.305 26.9999H61.5834L55.1913 14.9829H62.7595Z" fill="#none"/>
<path d="M24.8441 26.9999V0.818115H43.7134V6.54539H31.952V11.0454H42.7418V16.7727H31.952V21.2727H43.6622V26.9999H24.8441Z" fill="#none"/>
<path d="M14.8011 8.99998C14.733 8.14771 14.4134 7.48293 13.8423 7.00566C13.2798 6.52839 12.4233 6.28975 11.2727 6.28975C10.5398 6.28975 9.93892 6.37924 9.47017 6.55822C9.00994 6.72867 8.66904 6.96305 8.44744 7.26134C8.22585 7.55964 8.1108 7.90055 8.10227 8.28407C8.08523 8.59941 8.14063 8.88492 8.26847 9.1406C8.40483 9.38776 8.6179 9.61361 8.90767 9.81816C9.19744 10.0142 9.56818 10.1932 10.0199 10.3551C10.4716 10.517 11.0085 10.6619 11.6307 10.7898L13.7784 11.25C15.2273 11.5568 16.4673 11.9616 17.4986 12.4645C18.5298 12.9673 19.3736 13.5596 20.0298 14.2415C20.6861 14.9148 21.1676 15.6733 21.4744 16.517C21.7898 17.3608 21.9517 18.2812 21.9602 19.2784C21.9517 21 21.5213 22.4574 20.669 23.6505C19.8168 24.8437 18.598 25.7514 17.0128 26.3736C15.4361 26.9957 13.5398 27.3068 11.3239 27.3068C9.0483 27.3068 7.0625 26.9701 5.36648 26.2969C3.67898 25.6236 2.36648 24.588 1.42898 23.1903C0.500001 21.7841 0.0312507 19.9858 0.022728 17.7954H6.77273C6.81534 18.5966 7.01563 19.2699 7.37358 19.8153C7.73154 20.3608 8.23438 20.7741 8.8821 21.0554C9.53835 21.3366 10.3182 21.4773 11.2216 21.4773C11.9801 21.4773 12.6151 21.3835 13.1264 21.196C13.6378 21.0085 14.0256 20.7486 14.2898 20.4162C14.554 20.0838 14.6903 19.7045 14.6989 19.2784C14.6903 18.8778 14.5582 18.5284 14.3026 18.2301C14.0554 17.9233 13.6463 17.6505 13.0753 17.4119C12.5043 17.1648 11.733 16.9346 10.7614 16.7216L8.15341 16.1591C5.83523 15.6562 4.0071 14.8167 2.66903 13.6406C1.33949 12.4559 0.678978 10.8409 0.687501 8.79543C0.678978 7.1335 1.12216 5.68038 2.01705 4.43606C2.92046 3.18322 4.16903 2.20736 5.76278 1.5085C7.36506 0.809638 9.20171 0.460205 11.2727 0.460205C13.3864 0.460205 15.2145 0.813899 16.7571 1.52129C18.2997 2.22867 19.4886 3.22583 20.3239 4.51276C21.1676 5.79117 21.5938 7.28691 21.6023 8.99998H14.8011Z" fill="#none"/>
</svg>
