<svg width="209" height="83" viewBox="0 0 209 83" fill="none" xmlns="http://www.w3.org/2000/svg">
<path d="M191.204 82.6861C189.015 82.6861 186.924 82.3104 184.932 81.5591C182.972 80.7751 181.224 79.6808 179.689 78.2761C178.153 76.8388 176.928 75.1401 176.014 73.1801C175.132 71.1874 174.691 68.9825 174.691 66.5651C174.691 64.3438 175.05 62.2204 175.769 60.1951C176.52 58.1371 177.598 56.3078 179.003 54.7071C180.44 53.1064 182.22 51.8324 184.344 50.8851C186.467 49.9378 188.901 49.4641 191.645 49.4641C193.866 49.4641 195.957 49.8561 197.917 50.6401C199.909 51.3914 201.673 52.4858 203.209 53.9231C204.744 55.3278 205.953 57.0264 206.835 59.0191C207.749 60.9791 208.207 63.1678 208.207 65.5851C208.207 67.7738 207.831 69.8971 207.08 71.9551C206.361 74.0131 205.283 75.8424 203.846 77.4431C202.441 79.0438 200.677 80.3178 198.554 81.2651C196.43 82.2124 193.98 82.6861 191.204 82.6861ZM191.988 80.6281C194.274 80.6281 196.169 80.1054 197.672 79.0601C199.207 77.9821 200.35 76.4958 201.102 74.6011C201.886 72.7064 202.278 70.5178 202.278 68.0351C202.278 65.8464 202.033 63.7721 201.543 61.8121C201.085 59.8521 200.383 58.1044 199.436 56.5691C198.488 55.0011 197.296 53.7924 195.859 52.9431C194.421 52.0611 192.739 51.6201 190.812 51.6201C188.59 51.6201 186.712 52.1428 185.177 53.1881C183.674 54.2334 182.531 55.6871 181.747 57.5491C180.995 59.4111 180.62 61.5834 180.62 64.0661C180.62 66.2875 180.848 68.3781 181.306 70.3381C181.763 72.2981 182.465 74.0621 183.413 75.6301C184.36 77.1654 185.536 78.3904 186.941 79.3051C188.378 80.1871 190.06 80.6281 191.988 80.6281Z" fill="#293139"/>
<path d="M129.159 82.1961C128.734 82.1961 128.391 82.1471 128.13 82.0491C127.901 81.9838 127.787 81.8368 127.787 81.6081C127.787 81.3795 127.917 81.2161 128.179 81.1181C128.473 80.9875 128.865 80.8568 129.355 80.7261C130.139 80.5301 130.792 80.1218 131.315 79.5011C131.87 78.8805 132.229 78.0148 132.393 76.9041C132.719 74.4541 133.013 71.9878 133.275 69.5051C133.536 66.9898 133.765 64.6051 133.961 62.3511C134.157 60.0645 134.287 58.0391 134.353 56.2751C134.353 56.0465 134.353 55.7851 134.353 55.4911C134.353 55.1971 134.336 54.9195 134.304 54.6581C134.304 54.2988 134.238 53.9721 134.108 53.6781C134.01 53.3515 133.781 53.0738 133.422 52.8451C132.899 52.4205 132.376 52.1265 131.854 51.9631C131.331 51.7671 130.743 51.6038 130.09 51.4731C129.73 51.4078 129.436 51.2935 129.208 51.1301C129.012 50.9341 128.914 50.7218 128.914 50.4931C128.914 50.1991 129.061 50.0195 129.355 49.9541C129.649 49.8888 130.024 49.8561 130.482 49.8561C130.874 49.8561 131.413 49.8725 132.099 49.9051C132.785 49.9378 133.536 49.9868 134.353 50.0521C135.169 50.0848 135.937 50.1175 136.656 50.1501C137.407 50.1828 138.028 50.1991 138.518 50.1991C138.746 50.1991 138.959 50.2808 139.155 50.4441C139.351 50.5748 139.481 50.7708 139.547 51.0321C139.71 51.6201 139.873 52.2245 140.037 52.8451C140.233 53.4658 140.445 54.1028 140.674 54.7561L148.22 73.5231C148.318 73.7191 148.465 73.8335 148.661 73.8661C148.889 73.8988 149.053 73.8171 149.151 73.6211L157.873 54.8541C158.069 54.1028 158.232 53.3841 158.363 52.6981C158.526 51.9795 158.673 51.3751 158.804 50.8851C158.902 50.4605 159.098 50.2481 159.392 50.2481H161.254C162.364 50.2481 163.54 50.1828 164.782 50.0521C166.023 49.8888 166.97 49.8071 167.624 49.8071C167.852 49.8071 168.097 49.8561 168.359 49.9541C168.62 50.0195 168.751 50.1665 168.751 50.3951C168.751 50.6565 168.653 50.8525 168.457 50.9831C168.261 51.1138 167.95 51.2608 167.526 51.4241C167.166 51.5548 166.774 51.7018 166.35 51.8651C165.925 52.0285 165.533 52.1918 165.174 52.3551C164.651 52.5838 164.243 52.8941 163.949 53.2861C163.655 53.6455 163.524 54.1355 163.557 54.7561C163.557 57.0755 163.606 59.1988 163.704 61.1261C163.802 63.0208 163.883 64.8338 163.949 66.5651C164.047 68.2965 164.161 70.0278 164.292 71.7591C164.422 73.4905 164.537 75.3361 164.635 77.2961C164.7 78.2435 165.043 78.9948 165.664 79.5501C166.284 80.0728 167.166 80.4485 168.31 80.6771C168.767 80.7751 169.11 80.8895 169.339 81.0201C169.6 81.1508 169.731 81.3468 169.731 81.6081C169.731 81.8041 169.616 81.9511 169.388 82.0491C169.159 82.1471 168.849 82.1961 168.457 82.1961C167.64 82.1961 166.889 82.1635 166.203 82.0981C165.517 82.0655 164.831 82.0328 164.145 82.0001C163.491 81.9675 162.805 81.9511 162.087 81.9511C161.433 81.9511 160.829 81.9675 160.274 82.0001C159.718 82.0328 159.13 82.0655 158.51 82.0981C157.889 82.1635 157.154 82.1961 156.305 82.1961C155.945 82.1961 155.635 82.1471 155.374 82.0491C155.145 81.9838 155.031 81.8368 155.031 81.6081C155.031 81.3795 155.145 81.1835 155.374 81.0201C155.635 80.8568 155.994 80.7425 156.452 80.6771C157.497 80.5138 158.216 80.1871 158.608 79.6971C159 79.1745 159.196 78.3741 159.196 77.2961C159.163 75.0421 159.114 72.9515 159.049 71.0241C159.016 69.0968 158.951 67.2021 158.853 65.3401C158.755 63.4455 158.657 61.4528 158.559 59.3621C158.559 59.0681 158.477 58.9375 158.314 58.9701C158.183 58.9701 158.036 59.1171 157.873 59.4111L147.289 82.1471C147.191 82.4085 147.011 82.5228 146.75 82.4901C146.488 82.4901 146.325 82.3758 146.26 82.1471C144.855 78.3251 143.369 74.5685 141.801 70.8771C140.265 67.1531 138.648 63.2658 136.95 59.2151C136.852 59.0191 136.705 58.9375 136.509 58.9701C136.345 59.0028 136.247 59.1335 136.215 59.3621C135.986 61.4201 135.774 63.4128 135.578 65.3401C135.414 67.2675 135.284 69.1785 135.186 71.0731C135.12 72.9678 135.088 74.9278 135.088 76.9531C135.088 77.8678 135.365 78.6681 135.921 79.3541C136.509 80.0075 137.342 80.4485 138.42 80.6771C138.91 80.7751 139.285 80.8895 139.547 81.0201C139.841 81.1508 139.988 81.3468 139.988 81.6081C139.988 81.8041 139.857 81.9511 139.596 82.0491C139.334 82.1471 139.008 82.1961 138.616 82.1961C137.734 82.1961 137.064 82.1635 136.607 82.0981C136.149 82.0655 135.741 82.0328 135.382 82.0001C135.022 82.0001 134.516 82.0001 133.863 82.0001C133.242 82.0001 132.687 82.0165 132.197 82.0491C131.739 82.0818 131.266 82.1145 130.776 82.1471C130.318 82.1798 129.779 82.1961 129.159 82.1961Z" fill="#293139"/>
<path d="M106.485 82.6861C104.297 82.6861 102.206 82.3104 100.213 81.5591C98.2533 80.7751 96.5057 79.6808 94.9703 78.2761C93.435 76.8388 92.21 75.1401 91.2953 73.1801C90.4133 71.1874 89.9723 68.9825 89.9723 66.5651C89.9723 64.3438 90.3317 62.2204 91.0503 60.1951C91.8017 58.1371 92.8797 56.3078 94.2843 54.7071C95.7217 53.1064 97.502 51.8324 99.6253 50.8851C101.749 49.9378 104.182 49.4641 106.926 49.4641C109.148 49.4641 111.238 49.8561 113.198 50.6401C115.191 51.3914 116.955 52.4858 118.49 53.9231C120.026 55.3278 121.234 57.0264 122.116 59.0191C123.031 60.9791 123.488 63.1678 123.488 65.5851C123.488 67.7738 123.113 69.8971 122.361 71.9551C121.643 74.0131 120.565 75.8424 119.127 77.4431C117.723 79.0438 115.959 80.3178 113.835 81.2651C111.712 82.2124 109.262 82.6861 106.485 82.6861ZM107.269 80.6281C109.556 80.6281 111.451 80.1054 112.953 79.0601C114.489 77.9821 115.632 76.4958 116.383 74.6011C117.167 72.7064 117.559 70.5178 117.559 68.0351C117.559 65.8464 117.314 63.7721 116.824 61.8121C116.367 59.8521 115.665 58.1044 114.717 56.5691C113.77 55.0011 112.578 53.7924 111.14 52.9431C109.703 52.0611 108.021 51.6201 106.093 51.6201C103.872 51.6201 101.994 52.1428 100.458 53.1881C98.9557 54.2334 97.8123 55.6871 97.0283 57.5491C96.277 59.4111 95.9013 61.5834 95.9013 64.0661C95.9013 66.2875 96.13 68.3781 96.5873 70.3381C97.0447 72.2981 97.747 74.0621 98.6943 75.6301C99.6417 77.1654 100.818 78.3904 102.222 79.3051C103.66 80.1871 105.342 80.6281 107.269 80.6281Z" fill="#293139"/>
<path d="M62.3382 82.2451C61.9789 82.2451 61.6849 82.1798 61.4562 82.0491C61.2276 81.9184 61.1132 81.7714 61.1132 81.6081C61.1132 81.3468 61.2439 81.1508 61.5052 81.0201C61.7666 80.8568 61.9789 80.7588 62.1422 80.7261C63.3836 80.4321 64.2982 80.0564 64.8862 79.5991C65.5069 79.1418 65.8172 78.3741 65.8172 77.2961V54.7071C65.8172 53.9231 65.7356 53.3514 65.5722 52.9921C65.4089 52.6001 65.0986 52.3061 64.6412 52.1101C64.2166 51.9141 63.5959 51.7344 62.7792 51.5711C61.8319 51.3751 61.3582 51.0484 61.3582 50.5911C61.3582 50.3624 61.4726 50.1991 61.7012 50.1011C61.9626 50.0031 62.2729 49.9541 62.6322 49.9541C63.4489 49.9541 64.1839 49.9704 64.8372 50.0031C65.4906 50.0358 66.1112 50.0684 66.6992 50.1011C67.2872 50.1338 67.9406 50.1501 68.6592 50.1501C69.4106 50.1501 70.1292 50.1501 70.8152 50.1501C71.5012 50.1174 72.2036 50.0848 72.9222 50.0521C73.6409 50.0194 74.4086 50.0031 75.2252 50.0031C75.6172 50.0031 75.9112 50.0521 76.1072 50.1501C76.3359 50.2154 76.4502 50.3624 76.4502 50.5911C76.4502 50.8524 76.3359 51.0648 76.1072 51.2281C75.8786 51.3588 75.5192 51.4731 75.0292 51.5711C73.7879 51.8651 72.8079 52.1918 72.0892 52.5511C71.3706 52.8778 71.0112 53.5148 71.0112 54.4621V77.1491C71.0112 78.1618 71.2236 78.8968 71.6482 79.3541C72.1056 79.7788 73.0202 79.9911 74.3922 79.9911H80.0762C80.9256 79.9911 81.6606 79.8604 82.2812 79.5991C82.9346 79.3378 83.4409 79.0438 83.8002 78.7171C84.4209 78.1618 84.8946 77.6391 85.2212 77.1491C85.5806 76.6264 85.9562 75.9404 86.3482 75.0911C86.5116 74.7318 86.6912 74.3888 86.8872 74.0621C87.0832 73.7354 87.2956 73.5721 87.5242 73.5721C87.7529 73.5721 87.9162 73.6864 88.0142 73.9151C88.1122 74.1111 88.1612 74.3071 88.1612 74.5031C88.1612 74.5684 88.1449 74.6501 88.1122 74.7481C88.0796 74.8461 88.0632 74.9441 88.0632 75.0421C87.8346 75.9241 87.6222 76.7081 87.4262 77.3941C87.2302 78.0801 87.0669 78.7334 86.9362 79.3541C86.8382 79.9748 86.7566 80.6444 86.6912 81.3631C86.6586 81.5918 86.5932 81.8041 86.4952 82.0001C86.3972 82.1634 86.2176 82.2451 85.9562 82.2451C84.6822 82.2451 83.3266 82.2288 81.8892 82.1961C80.4519 82.1634 78.9982 82.1308 77.5282 82.0981C76.0582 82.0981 74.6046 82.0818 73.1672 82.0491C71.7626 82.0164 70.4069 82.0001 69.1002 82.0001C68.3162 82.0001 67.4342 82.0164 66.4542 82.0491C65.5069 82.0818 64.6249 82.1144 63.8082 82.1471C63.0242 82.2124 62.5342 82.2451 62.3382 82.2451Z" fill="#293139"/>
<path d="M25.4294 82.245C25.0374 82.245 24.7107 82.1797 24.4494 82.049C24.188 81.951 24.0574 81.7877 24.0574 81.559C24.0574 81.2977 24.188 81.0853 24.4494 80.922C24.7107 80.7587 25.07 80.5953 25.5274 80.432C26.4094 80.1707 27.2097 79.7787 27.9284 79.256C28.647 78.7333 29.235 77.933 29.6924 76.855C30.5744 74.8623 31.391 72.9677 32.1424 71.171C32.8937 69.3417 33.6124 67.545 34.2984 65.781C34.9844 64.017 35.6867 62.204 36.4054 60.342C37.124 58.4473 37.859 56.4383 38.6104 54.315C38.9044 53.5637 39.1167 52.943 39.2474 52.453C39.378 51.9303 39.4597 51.473 39.4924 51.081C39.917 50.983 40.309 50.885 40.6684 50.787C41.0277 50.6563 41.4197 50.4767 41.8444 50.248C42.2364 50.052 42.5304 49.7743 42.7264 49.415C42.955 49.023 43.1347 48.7453 43.2654 48.582C43.3307 48.5493 43.396 48.533 43.4614 48.533C43.5594 48.5003 43.641 48.5493 43.7064 48.68C43.8044 48.8433 43.8697 49.023 43.9024 49.219C43.9677 49.415 44.033 49.6273 44.0984 49.856C44.8497 52.2407 45.6174 54.6743 46.4014 57.157C47.218 59.607 48.0184 62.008 48.8024 64.36C49.5864 66.712 50.3214 68.9007 51.0074 70.926C51.6934 72.9187 52.2814 74.6663 52.7714 76.169C53.1307 77.247 53.5554 78.08 54.0454 78.668C54.5354 79.2233 55.058 79.648 55.6134 79.942C56.1687 80.2033 56.773 80.3993 57.4264 80.53C57.9164 80.628 58.2757 80.775 58.5044 80.971C58.7657 81.167 58.8964 81.3957 58.8964 81.657C58.8964 81.853 58.7657 81.9837 58.5044 82.049C58.2757 82.147 57.9817 82.196 57.6224 82.196C57.0997 82.196 56.4137 82.1633 55.5644 82.098C54.715 82.0653 53.833 82.0327 52.9184 82C52.0037 81.9673 51.1707 81.951 50.4194 81.951C49.7987 81.951 49.1127 81.951 48.3614 81.951C47.61 81.951 46.8914 81.9673 46.2054 82C45.552 82.0327 44.9804 82.049 44.4904 82.049C44.0984 82.049 43.7717 82 43.5104 81.902C43.2817 81.7713 43.1674 81.608 43.1674 81.412C43.1674 81.1507 43.3144 80.9383 43.6084 80.775C43.9024 80.6117 44.2454 80.4973 44.6374 80.432C45.748 80.236 46.5484 79.942 47.0384 79.55C47.561 79.158 47.7734 78.6353 47.6754 77.982C47.6427 77.4267 47.5284 76.7407 47.3324 75.924C47.1364 75.0747 46.9077 74.1927 46.6464 73.278C46.385 72.3307 46.14 71.465 45.9114 70.681C45.846 70.4197 45.7317 70.2563 45.5684 70.191C45.405 70.1257 45.1274 70.093 44.7354 70.093H35.6704C35.507 70.093 35.36 70.1583 35.2294 70.289C35.0987 70.387 34.968 70.5993 34.8374 70.926C34.7394 71.318 34.576 71.8243 34.3474 72.445C34.1514 73.033 33.9554 73.67 33.7594 74.356C33.5634 75.0093 33.3837 75.63 33.2204 76.218C33.0897 76.7733 33.008 77.1817 32.9754 77.443C32.8774 78.2597 33.0734 78.913 33.5634 79.403C34.086 79.8603 34.8537 80.2197 35.8664 80.481C36.8464 80.7423 37.3364 81.069 37.3364 81.461C37.3364 81.6897 37.2057 81.853 36.9444 81.951C36.7157 82.0163 36.4054 82.049 36.0134 82.049C35.3927 82.049 34.674 82.0327 33.8574 82C33.0407 81.9673 32.175 81.951 31.2604 81.951C30.215 81.951 29.2024 82 28.2224 82.098C27.2424 82.196 26.3114 82.245 25.4294 82.245ZM37.0424 68.084H44.1964C44.6537 68.084 44.8824 68.0023 44.8824 67.839C44.8824 67.741 44.866 67.6593 44.8334 67.594C44.8334 67.5287 44.817 67.4307 44.7844 67.3L41.1584 55.687C40.995 55.1643 40.8644 54.903 40.7664 54.903C40.701 54.903 40.5867 55.148 40.4234 55.638L36.1604 67.3C36.095 67.496 36.0624 67.6267 36.0624 67.692C36.0624 67.8553 36.144 67.9697 36.3074 68.035C36.5034 68.0677 36.7484 68.084 37.0424 68.084Z" fill="#293139"/>
<path d="M1.303 82.1962C0.943666 82.1962 0.633333 82.1472 0.371999 82.0492C0.143333 81.9839 0.0289993 81.8369 0.0289993 81.6082C0.0289993 81.1836 0.502666 80.8732 1.45 80.6772C2.69133 80.4486 3.57333 80.0892 4.096 79.5992C4.65133 79.1092 4.929 78.2926 4.929 77.1492V56.0302C4.929 54.6582 4.733 53.6292 4.341 52.9432C3.98167 52.2572 3.19767 51.7999 1.989 51.5712C1.46633 51.4732 1.09067 51.3426 0.861999 51.1792C0.633333 51.0159 0.518999 50.8199 0.518999 50.5912C0.518999 50.3952 0.633333 50.2482 0.861999 50.1502C1.12333 50.0196 1.43367 49.9542 1.793 49.9542C2.64233 49.9542 3.34467 49.9706 3.9 50.0032C4.45533 50.0032 4.99433 50.0196 5.517 50.0522C6.03967 50.0849 6.62767 50.1012 7.281 50.1012C7.967 50.1012 8.63667 50.0686 9.29 50.0032C9.94333 49.9379 10.5803 49.8726 11.201 49.8072C11.8543 49.7419 12.5077 49.7092 13.161 49.7092C16.983 49.7092 20.0373 50.5096 22.324 52.1102C24.6107 53.7109 25.754 55.9159 25.754 58.7252C25.754 60.7179 25.3457 62.5636 24.529 64.2622C23.745 65.9609 22.52 67.3329 20.854 68.3782C19.188 69.3909 17.0647 69.8972 14.484 69.8972C13.7327 69.8972 13.1447 69.7829 12.72 69.5542C12.328 69.3256 12.132 69.0969 12.132 68.8682C12.132 68.6722 12.23 68.5089 12.426 68.3782C12.622 68.2149 12.8017 68.1332 12.965 68.1332C13.1937 68.1332 13.455 68.1659 13.749 68.2312C14.0757 68.2639 14.533 68.2802 15.121 68.2802C16.885 68.2802 18.208 67.4799 19.09 65.8792C20.0047 64.2786 20.462 62.1062 20.462 59.3622C20.462 56.6182 19.776 54.6092 18.404 53.3352C17.0647 52.0286 15.317 51.3752 13.161 51.3752C12.2463 51.3752 11.5113 51.5549 10.956 51.9142C10.4333 52.2409 10.172 52.7962 10.172 53.5802L10.123 76.7572C10.123 77.8679 10.3843 78.7499 10.907 79.4032C11.4297 80.0239 12.328 80.4486 13.602 80.6772C14.0593 80.7752 14.4023 80.8896 14.631 81.0202C14.8923 81.1509 15.023 81.3469 15.023 81.6082C15.023 81.8042 14.9087 81.9512 14.68 82.0492C14.4513 82.1472 14.141 82.1962 13.749 82.1962C12.9323 82.1962 12.1973 82.1636 11.544 82.0982C10.9233 82.0656 10.319 82.0329 9.731 82.0002C9.17567 81.9349 8.58767 81.9022 7.967 81.9022C7.183 81.9022 6.43167 81.9349 5.713 82.0002C5.027 82.0329 4.32467 82.0656 3.606 82.0982C2.92 82.1636 2.15233 82.1962 1.303 82.1962Z" fill="#293139"/>
<path d="M162.803 33.6861C160.614 33.6861 158.523 33.3104 156.531 32.5591C154.571 31.7751 152.823 30.6808 151.288 29.2761C149.752 27.8388 148.527 26.1401 147.613 24.1801C146.731 22.1874 146.29 19.9824 146.29 17.5651C146.29 15.3438 146.649 13.2204 147.368 11.1951C148.119 9.13711 149.197 7.30778 150.602 5.70711C152.039 4.10644 153.819 2.83244 155.943 1.88511C158.066 0.937777 160.5 0.464111 163.244 0.464111C165.465 0.464111 167.556 0.85611 169.516 1.64011C171.508 2.39144 173.272 3.48578 174.808 4.92311C176.343 6.32778 177.552 8.02644 178.434 10.0191C179.348 11.9791 179.806 14.1678 179.806 16.5851C179.806 18.7738 179.43 20.8971 178.679 22.9551C177.96 25.0131 176.882 26.8424 175.445 28.4431C174.04 30.0438 172.276 31.3178 170.153 32.2651C168.029 33.2124 165.579 33.6861 162.803 33.6861ZM163.587 31.6281C165.873 31.6281 167.768 31.1054 169.271 30.0601C170.806 28.9821 171.949 27.4958 172.701 25.6011C173.485 23.7064 173.877 21.5178 173.877 19.0351C173.877 16.8464 173.632 14.7721 173.142 12.8121C172.684 10.8521 171.982 9.10444 171.035 7.56911C170.087 6.00111 168.895 4.79244 167.458 3.94311C166.02 3.06111 164.338 2.62011 162.411 2.62011C160.189 2.62011 158.311 3.14278 156.776 4.18811C155.273 5.23344 154.13 6.68711 153.346 8.54911C152.594 10.4111 152.219 12.5834 152.219 15.0661C152.219 17.2874 152.447 19.3781 152.905 21.3381C153.362 23.2981 154.064 25.0621 155.012 26.6301C155.959 28.1654 157.135 29.3904 158.54 30.3051C159.977 31.1871 161.659 31.6281 163.587 31.6281Z" fill="#293139"/>
<path d="M127.54 33.1961C127.18 33.1961 126.87 33.1471 126.609 33.0491C126.38 32.9838 126.266 32.8368 126.266 32.6081C126.266 32.1834 126.739 31.8731 127.687 31.6771C128.928 31.4484 129.843 31.0891 130.431 30.5991C131.019 30.1091 131.313 29.3088 131.313 28.1981V6.0501C131.313 4.93944 131.084 4.15544 130.627 3.6981C130.169 3.2081 129.32 2.83244 128.079 2.5711C127.131 2.3751 126.658 2.04844 126.658 1.5911C126.658 1.36244 126.772 1.1991 127.001 1.1011C127.229 1.0031 127.523 0.954102 127.883 0.954102C128.732 0.954102 129.483 0.970435 130.137 1.0031C130.823 1.03577 131.476 1.06844 132.097 1.1011C132.717 1.13377 133.387 1.1501 134.106 1.1501C134.792 1.1501 135.429 1.1501 136.017 1.1501C136.637 1.11744 137.258 1.08477 137.879 1.0521C138.532 1.01943 139.267 1.0031 140.084 1.0031C140.476 1.0031 140.786 1.0521 141.015 1.1501C141.243 1.21544 141.358 1.36244 141.358 1.5911C141.358 1.85244 141.227 2.06477 140.966 2.2281C140.737 2.35877 140.394 2.4731 139.937 2.5711C138.663 2.8651 137.764 3.24077 137.242 3.6981C136.752 4.15544 136.507 4.93944 136.507 6.0501V28.1981C136.507 29.2761 136.817 30.0601 137.438 30.5501C138.058 31.0401 138.973 31.4158 140.182 31.6771C140.672 31.7751 141.031 31.8894 141.26 32.0201C141.488 32.1508 141.603 32.3468 141.603 32.6081C141.603 32.8041 141.488 32.9511 141.26 33.0491C141.064 33.1471 140.77 33.1961 140.378 33.1961C139.561 33.1961 138.81 33.1634 138.124 33.0981C137.438 33.0654 136.768 33.0328 136.115 33.0001C135.494 32.9674 134.824 32.9511 134.106 32.9511C133.322 32.9511 132.587 32.9674 131.901 33.0001C131.247 33.0328 130.561 33.0654 129.843 33.0981C129.124 33.1634 128.356 33.1961 127.54 33.1961Z" fill="#293139"/>
<path d="M106.833 33.6862C104.546 33.6862 102.374 33.2942 100.316 32.5102C98.2906 31.7262 96.4776 30.6155 94.8769 29.1782C93.3089 27.7409 92.0676 26.0422 91.1529 24.0822C90.2382 22.1222 89.7809 19.9989 89.7809 17.7122C89.7809 15.3602 90.2382 13.1389 91.1529 11.0482C92.0676 8.95752 93.3579 7.12818 95.0239 5.56019C96.6899 3.99218 98.6172 2.76718 100.806 1.88518C103.027 0.970517 105.428 0.513184 108.009 0.513184C108.597 0.513184 109.348 0.562184 110.263 0.660185C111.21 0.758186 112.19 0.888852 113.203 1.05219C114.216 1.21552 115.13 1.39519 115.947 1.59118C116.796 1.78718 117.417 1.98318 117.809 2.17919C118.005 2.24452 118.152 2.34252 118.25 2.47318C118.348 2.57119 118.413 2.73452 118.446 2.96318C118.577 3.97585 118.691 4.97218 118.789 5.95218C118.887 6.89952 118.936 7.69985 118.936 8.35318C118.936 8.61452 118.854 8.84319 118.691 9.03919C118.56 9.23519 118.397 9.33319 118.201 9.33319C117.842 9.33319 117.58 9.20252 117.417 8.94118C117.254 8.67985 117.107 8.40219 116.976 8.10819C116.747 7.55285 116.502 7.04652 116.241 6.58918C115.98 6.09919 115.62 5.60918 115.163 5.11919C114.902 4.79252 114.461 4.44952 113.84 4.09018C113.252 3.69818 112.468 3.35518 111.488 3.06119C110.541 2.76719 109.365 2.62019 107.96 2.62019C106.098 2.62019 104.416 3.01219 102.913 3.79619C101.41 4.54752 100.136 5.59285 99.0909 6.93219C98.0456 8.27152 97.2453 9.79052 96.6899 11.4892C96.1346 13.1879 95.8569 14.9682 95.8569 16.8302C95.8569 19.1169 96.1509 21.1749 96.7389 23.0042C97.3596 24.8335 98.1926 26.3852 99.2379 27.6592C100.316 28.9332 101.574 29.9132 103.011 30.5992C104.448 31.2525 105.967 31.5792 107.568 31.5792C109.103 31.5792 110.247 31.3832 110.998 30.9912C111.782 30.5992 112.321 30.2725 112.615 30.0112C112.974 29.6845 113.285 29.2109 113.546 28.5902C113.84 27.9369 113.987 27.2182 113.987 26.4342C113.987 26.1402 113.987 25.7972 113.987 25.4052C114.02 25.0132 114.036 24.6212 114.036 24.2292C114.069 23.8045 114.085 23.4452 114.085 23.1512C114.085 22.7919 114.036 22.4815 113.938 22.2202C113.873 21.9589 113.742 21.7465 113.546 21.5832C113.252 21.2892 112.827 21.0605 112.272 20.8972C111.717 20.7012 111.161 20.5542 110.606 20.4562C110.083 20.3582 109.659 20.2929 109.332 20.2602C109.136 20.2602 108.907 20.1785 108.646 20.0152C108.385 19.8192 108.254 19.5905 108.254 19.3292C108.254 19.1005 108.385 18.9209 108.646 18.7902C108.907 18.6269 109.12 18.5452 109.283 18.5452C110.067 18.5452 110.802 18.5615 111.488 18.5942C112.207 18.6269 112.925 18.6595 113.644 18.6922C114.363 18.7249 115.13 18.7412 115.947 18.7412C116.796 18.7412 117.597 18.7085 118.348 18.6432C119.132 18.5779 119.981 18.5452 120.896 18.5452C121.059 18.5452 121.255 18.6105 121.484 18.7412C121.713 18.8392 121.827 19.0352 121.827 19.3292C121.827 19.5905 121.696 19.8029 121.435 19.9662C121.206 20.1295 121.01 20.2275 120.847 20.2602C120.063 20.4889 119.508 20.7829 119.181 21.1422C118.887 21.5015 118.691 22.0079 118.593 22.6612C118.495 23.3799 118.43 24.0169 118.397 24.5722C118.364 25.1275 118.348 25.7155 118.348 26.3362V27.7572C118.348 27.9205 118.381 28.0675 118.446 28.1982C118.544 28.2962 118.642 28.4269 118.74 28.5902C118.838 28.7535 118.952 28.9169 119.083 29.0802C119.246 29.2109 119.328 29.3579 119.328 29.5212C119.328 29.6519 119.279 29.8315 119.181 30.0602C119.116 30.2562 118.903 30.3869 118.544 30.4522C118.315 30.4849 117.858 30.6809 117.172 31.0402C116.519 31.3669 115.686 31.7425 114.673 32.1672C113.693 32.5592 112.533 32.9022 111.194 33.1962C109.887 33.5229 108.434 33.6862 106.833 33.6862Z" fill="#293139"/>
<path d="M85.3855 34.0291C84.2095 34.0291 83.1478 33.8985 82.2005 33.6371C81.2858 33.4085 80.4528 33.0491 79.7015 32.5591C78.9828 32.0691 78.3295 31.4648 77.7415 30.7461C76.9901 29.7661 76.2551 28.8188 75.5365 27.9041C74.8505 26.9895 74.1318 25.9605 73.3805 24.8171C72.6291 23.6411 71.7471 22.2201 70.7345 20.5541C70.3098 19.7375 69.7055 19.1331 68.9215 18.7411C68.3661 18.4471 67.7945 18.2511 67.2065 18.1531C66.6511 18.0225 66.1938 17.9408 65.8345 17.9081C65.6058 17.9081 65.4261 18.0061 65.2955 18.2021C65.1975 18.3655 65.1485 18.5941 65.1485 18.8881V27.7571C65.1485 28.8025 65.4098 29.6681 65.9325 30.3541C66.4551 31.0075 67.3535 31.4485 68.6275 31.6771C69.0848 31.7751 69.4278 31.8895 69.6565 32.0201C69.9178 32.1508 70.0485 32.3468 70.0485 32.6081C70.0485 32.8041 69.9341 32.9511 69.7055 33.0491C69.4768 33.1471 69.1665 33.1961 68.7745 33.1961C67.9578 33.1961 67.2228 33.1635 66.5695 33.0981C65.9488 33.0655 65.3445 33.0328 64.7565 33.0001C64.2011 32.9348 63.6131 32.9021 62.9925 32.9021C62.2085 32.9021 61.4571 32.9348 60.7385 33.0001C60.0525 33.0328 59.3501 33.0655 58.6315 33.0981C57.9455 33.1635 57.1778 33.1961 56.3285 33.1961C55.9691 33.1961 55.6588 33.1471 55.3975 33.0491C55.1688 32.9838 55.0545 32.8368 55.0545 32.6081C55.0545 32.1835 55.5281 31.8731 56.4755 31.6771C57.7168 31.4485 58.5988 31.0891 59.1215 30.5991C59.6768 30.1091 59.9545 29.2925 59.9545 28.1491V6.88313C59.9545 5.77246 59.8891 4.93946 59.7585 4.38413C59.6278 3.79613 59.3501 3.38779 58.9255 3.15913C58.5335 2.89779 57.8965 2.70179 57.0145 2.57113C56.4918 2.50579 56.1161 2.39146 55.8875 2.22813C55.6588 2.03213 55.5445 1.8198 55.5445 1.59113C55.5445 1.39513 55.6588 1.24813 55.8875 1.15013C56.1488 1.01946 56.4591 0.954126 56.8185 0.954126C57.7658 0.954126 58.5008 0.97046 59.0235 1.00313C59.5461 1.03579 60.0361 1.06846 60.4935 1.10113C60.9835 1.10113 61.5878 1.10113 62.3065 1.10113C62.9598 1.10113 63.5478 1.08479 64.0705 1.05213C64.5931 0.986793 65.1811 0.937794 65.8345 0.905128C66.4878 0.839795 67.3208 0.807129 68.3335 0.807129C71.9921 0.807129 74.7851 1.47679 76.7125 2.81613C78.6725 4.12279 79.6525 6.11546 79.6525 8.79413C79.6525 10.2641 79.3421 11.5218 78.7215 12.5671C78.1335 13.6125 77.3821 14.4781 76.4675 15.1641C75.5528 15.8501 74.6381 16.3891 73.7235 16.7811C73.5928 16.8138 73.5275 16.8955 73.5275 17.0261C73.5601 17.1241 73.6091 17.2548 73.6745 17.4181C74.6871 18.9208 75.6508 20.3581 76.5655 21.7301C77.5128 23.0695 78.5091 24.3761 79.5545 25.6501C80.6325 26.8915 81.8575 28.1491 83.2295 29.4231C84.1441 30.2725 85.0915 30.7788 86.0715 30.9421C87.0841 31.1055 88.1621 31.1871 89.3055 31.1871C89.7955 31.1871 90.0405 31.4158 90.0405 31.8731C90.0405 32.4285 89.7791 32.8531 89.2565 33.1471C88.7665 33.4738 88.1621 33.7025 87.4435 33.8331C86.7248 33.9638 86.0388 34.0291 85.3855 34.0291ZM67.5005 16.6341C68.9051 16.6341 70.0975 16.3238 71.0775 15.7031C72.0901 15.0498 72.8578 14.2005 73.3805 13.1551C73.9358 12.0771 74.2135 10.9175 74.2135 9.67613C74.2135 8.27146 74.0338 7.03013 73.6745 5.95213C73.3151 4.87413 72.6618 4.04113 71.7145 3.45313C70.7671 2.83246 69.4115 2.52213 67.6475 2.52213C66.7328 2.52213 66.1121 2.84879 65.7855 3.50213C65.4588 4.12279 65.2791 5.31513 65.2465 7.07913C65.2138 7.86313 65.1811 8.90846 65.1485 10.2151C65.1485 11.5218 65.1485 13.0735 65.1485 14.8701C65.1485 15.6541 65.3608 16.1441 65.7855 16.3401C66.2101 16.5361 66.7818 16.6341 67.5005 16.6341Z" fill="#293139"/>
<path d="M27.0089 33.245C26.6169 33.245 26.3065 33.196 26.0779 33.098C25.8492 33 25.7349 32.853 25.7349 32.657C25.7349 32.2324 26.2085 31.922 27.1559 31.726C28.3645 31.4647 29.2302 31.1054 29.7529 30.648C30.3082 30.158 30.5859 29.3414 30.5859 28.198V6.05003C30.5859 4.93936 30.3572 4.13903 29.8999 3.64903C29.4425 3.15903 28.6095 2.7997 27.4009 2.57103C26.9109 2.47303 26.5515 2.34236 26.3229 2.17903C26.0942 2.0157 25.9799 1.8197 25.9799 1.59103C25.9799 1.39503 26.0942 1.24803 26.3229 1.15003C26.5515 1.01936 26.8619 0.954028 27.2539 0.954028C28.3319 0.954028 29.2955 0.970362 30.1449 1.00303C31.0269 1.0357 31.8762 1.06836 32.6929 1.10103C33.5422 1.1337 34.4569 1.15003 35.4369 1.15003C36.7435 1.15003 38.1155 1.15003 39.5529 1.15003C41.0229 1.11736 42.3459 1.0847 43.5219 1.05203C44.6325 1.05203 45.5472 1.0357 46.2659 1.00303C47.0172 0.937695 47.4582 0.905029 47.5889 0.905029C47.7849 0.905029 47.9809 0.954029 48.1769 1.05203C48.4055 1.11736 48.5362 1.26436 48.5689 1.49303C48.7322 2.5057 48.8955 3.50203 49.0589 4.48203C49.2549 5.42936 49.3529 6.26236 49.3529 6.98103C49.3529 7.3077 49.2712 7.53636 49.1079 7.66703C48.9772 7.76503 48.8302 7.81403 48.6669 7.81403C48.5035 7.81403 48.3729 7.76503 48.2749 7.66703C48.1769 7.56903 48.0789 7.42203 47.9809 7.22603C47.7522 6.5727 47.5399 5.9847 47.3439 5.46203C47.1479 4.90669 46.9192 4.49836 46.6579 4.23703C46.2332 3.7797 45.7432 3.4367 45.1879 3.20803C44.6325 2.97936 44.0119 2.86503 43.3259 2.86503H37.8379C37.4132 2.86503 36.9559 3.02836 36.4659 3.35503C36.0085 3.64903 35.7799 4.0737 35.7799 4.62903V14.625C35.7799 14.9517 35.8779 15.213 36.0739 15.409C36.2699 15.605 36.4985 15.703 36.7599 15.703H41.4149C42.3622 15.703 43.0155 15.4907 43.3749 15.066C43.7342 14.6414 44.0282 13.988 44.2569 13.106C44.4855 12.4527 44.7959 12.126 45.1879 12.126C45.3512 12.126 45.4982 12.2077 45.6289 12.371C45.7595 12.5017 45.8249 12.714 45.8249 13.008C45.8249 13.204 45.8085 13.5307 45.7759 13.988C45.7432 14.4454 45.7105 14.919 45.6779 15.409C45.6452 15.899 45.6289 16.291 45.6289 16.585C45.6289 16.9444 45.6289 17.3854 45.6289 17.908C45.6615 18.398 45.6942 18.888 45.7269 19.378C45.7595 19.868 45.7759 20.2274 45.7759 20.456C45.8085 20.75 45.7759 20.995 45.6779 21.191C45.6125 21.3544 45.4982 21.436 45.3349 21.436C44.8122 21.436 44.4202 20.9624 44.1589 20.015C43.9629 19.1657 43.6852 18.5287 43.3259 18.104C42.9992 17.6794 42.5092 17.467 41.8559 17.467H37.2989C36.7762 17.467 36.3842 17.5487 36.1229 17.712C35.8942 17.8754 35.7799 18.2184 35.7799 18.741V28.1C35.7799 29.2434 36.0249 30.0437 36.5149 30.501C37.0049 30.9257 37.7562 31.138 38.7689 31.138H42.6399C43.5545 31.138 44.3549 31.0727 45.0409 30.942C45.7269 30.8114 46.3149 30.5664 46.8049 30.207C47.3602 29.815 47.8502 29.3087 48.2749 28.688C48.6995 28.0674 49.1405 27.2997 49.5979 26.385C49.7285 26.189 49.8592 26.042 49.9899 25.944C50.1205 25.8134 50.2675 25.7644 50.4309 25.797C50.6269 25.797 50.7575 25.8787 50.8229 26.042C50.9209 26.1727 50.9699 26.3524 50.9699 26.581C50.9699 26.9404 50.8882 27.4794 50.7249 28.198C50.5615 28.9167 50.3492 29.668 50.0879 30.452C49.8592 31.236 49.6469 31.9057 49.4509 32.461C49.3529 32.6897 49.2385 32.8694 49.1079 33C48.9772 33.1634 48.8139 33.245 48.6179 33.245C47.4419 33.245 46.2169 33.2287 44.9429 33.196C43.6689 33.1634 42.3622 33.1307 41.0229 33.098C39.6835 33.0654 38.3442 33.0327 37.0049 33C35.6655 32.9674 34.3425 32.951 33.0359 32.951C32.3499 32.951 31.6965 32.9674 31.0759 33C30.4552 33.0654 29.8182 33.1144 29.1649 33.147C28.5442 33.2124 27.8255 33.245 27.0089 33.245Z" fill="#293139"/>
<path d="M9.241 33.7351C7.869 33.7351 6.57867 33.5391 5.37 33.1471C4.16133 32.7878 3.05067 32.2324 2.038 31.4811C1.90733 31.3504 1.76033 31.2034 1.597 31.0401C1.46633 30.8441 1.36833 30.6481 1.303 30.4521C1.07433 29.7008 0.911 28.7698 0.813 27.6591C0.747667 26.5158 0.698667 25.5031 0.666 24.6211C0.666 24.3924 0.764 24.2291 0.96 24.1311C1.156 24.0004 1.38467 23.9351 1.646 23.9351C1.87467 23.9351 2.05433 23.9841 2.185 24.0821C2.34833 24.1474 2.46267 24.2944 2.528 24.5231C3.214 27.0058 4.22667 28.8678 5.566 30.1091C6.90533 31.3178 8.359 31.9221 9.927 31.9221C11.0377 31.9221 11.985 31.6771 12.769 31.1871C13.5857 30.6971 14.2227 30.0438 14.68 29.2271C15.1373 28.3778 15.366 27.4304 15.366 26.3851C15.366 25.1438 15.1537 24.1311 14.729 23.3471C14.3043 22.5631 13.6837 21.8608 12.867 21.2401C12.0503 20.6194 11.0377 19.9498 9.829 19.2311C8.52233 18.4471 7.232 17.6304 5.958 16.7811C4.71667 15.9318 3.68767 14.9354 2.871 13.7921C2.05433 12.6488 1.646 11.2441 1.646 9.57811C1.646 7.81411 2.05433 6.26245 2.871 4.92311C3.72033 3.55111 4.94533 2.47311 6.546 1.68911C8.14667 0.872444 10.074 0.464111 12.328 0.464111C13.504 0.464111 14.5657 0.594778 15.513 0.856112C16.493 1.08478 17.277 1.32978 17.865 1.59111C18.159 1.68911 18.3877 1.85244 18.551 2.08111C18.747 2.30978 18.894 2.58744 18.992 2.91411C19.1553 3.60011 19.335 4.40044 19.531 5.31511C19.727 6.22978 19.825 7.16078 19.825 8.10811C19.825 8.46745 19.5637 8.64711 19.041 8.64711C18.747 8.64711 18.4693 8.58178 18.208 8.45111C17.9467 8.32045 17.7833 8.15711 17.718 7.96111C17.0647 6.13178 16.248 4.74344 15.268 3.79611C14.3207 2.84878 13.112 2.37511 11.642 2.37511C10.662 2.37511 9.76367 2.55478 8.947 2.91411C8.163 3.24078 7.526 3.79611 7.036 4.58011C6.57867 5.33144 6.35 6.32778 6.35 7.56911C6.35 8.45111 6.644 9.28411 7.232 10.0681C7.85267 10.8194 8.66933 11.5544 9.682 12.2731C10.7273 12.9591 11.887 13.6778 13.161 14.4291C14.5003 15.2458 15.709 16.0951 16.787 16.9771C17.865 17.8591 18.7143 18.8718 19.335 20.0151C19.9557 21.1258 20.266 22.4651 20.266 24.0331C20.266 26.0911 19.8087 27.8551 18.894 29.3251C17.9793 30.7624 16.689 31.8568 15.023 32.6081C13.3897 33.3594 11.4623 33.7351 9.241 33.7351Z" fill="#293139"/>
</svg>
