<svg width="30" height="30" viewBox="0 0 30 30" fill="none" xmlns="http://www.w3.org/2000/svg">
<path fill-rule="evenodd" clip-rule="evenodd" d="M15 0C6.71573 0 0 6.71573 0 15C0 23.2842 6.71573 30 15 30C23.2842 30 30 23.2842 30 15C30 6.71573 23.2842 0 15 0ZM20.0551 11.8733C20.5876 11.3408 20.5876 10.4774 20.0551 9.94485C19.5226 9.41232 18.6592 9.41232 18.1267 9.94485L15 13.0715L11.8733 9.94488C11.3408 9.41234 10.4774 9.41234 9.94485 9.94488C9.41232 10.4774 9.41232 11.3408 9.94485 11.8733L13.0715 15L9.94486 18.1267C9.41234 18.6592 9.41234 19.5226 9.94486 20.0551C10.4774 20.5876 11.3408 20.5876 11.8733 20.0551L15 16.9285L18.1267 20.0551C18.6592 20.5876 19.5226 20.5876 20.0551 20.0551C20.5876 19.5226 20.5876 18.6592 20.0551 18.1267L16.9285 15L20.0551 11.8733Z" fill="#DCDCDC"/>
</svg>
