<svg width="33" height="33" viewBox="0 0 33 33" fill="none" xmlns="http://www.w3.org/2000/svg">
<path fill-rule="evenodd" clip-rule="evenodd" d="M3.3 0C5.12254 0 6.6 1.47746 6.6 3.3C6.6 5.12254 5.12254 6.6 3.3 6.6C1.47746 6.6 0 5.12254 0 3.3C0 1.47746 1.47746 0 3.3 0ZM16.5 0C18.3226 0 19.8 1.47746 19.8 3.3C19.8 5.12254 18.3226 6.6 16.5 6.6C14.6774 6.6 13.2 5.12254 13.2 3.3C13.2 1.47746 14.6774 0 16.5 0ZM33 3.3C33 1.47746 31.5226 0 29.7 0C27.8774 0 26.4 1.47746 26.4 3.3C26.4 5.12254 27.8774 6.6 29.7 6.6C31.5226 6.6 33 5.12254 33 3.3ZM3.3 13.2C5.12254 13.2 6.6 14.6774 6.6 16.5C6.6 18.3226 5.12254 19.8 3.3 19.8C1.47746 19.8 0 18.3226 0 16.5C0 14.6774 1.47746 13.2 3.3 13.2ZM19.8 16.5C19.8 14.6774 18.3226 13.2 16.5 13.2C14.6774 13.2 13.2 14.6774 13.2 16.5C13.2 18.3226 14.6774 19.8 16.5 19.8C18.3226 19.8 19.8 18.3226 19.8 16.5ZM29.7 13.2C31.5226 13.2 33 14.6774 33 16.5C33 18.3226 31.5226 19.8 29.7 19.8C27.8774 19.8 26.4 18.3226 26.4 16.5C26.4 14.6774 27.8774 13.2 29.7 13.2ZM6.6 29.7C6.6 27.8774 5.12254 26.4 3.3 26.4C1.47746 26.4 0 27.8774 0 29.7C0 31.5226 1.47746 33 3.3 33C5.12254 33 6.6 31.5226 6.6 29.7ZM16.5 26.4C18.3226 26.4 19.8 27.8774 19.8 29.7C19.8 31.5226 18.3226 33 16.5 33C14.6774 33 13.2 31.5226 13.2 29.7C13.2 27.8774 14.6774 26.4 16.5 26.4ZM33 29.7C33 27.8774 31.5226 26.4 29.7 26.4C27.8774 26.4 26.4 27.8774 26.4 29.7C26.4 31.5226 27.8774 33 29.7 33C31.5226 33 33 31.5226 33 29.7Z" fill="#DCDCDC"/>
</svg>
