<svg width="55" height="55" viewBox="0 0 55 55" fill="none" xmlns="http://www.w3.org/2000/svg">
<path fill-rule="evenodd" clip-rule="evenodd" d="M27.5 55C42.6878 55 55 42.6878 55 27.5C55 12.3122 42.6878 -1.52766e-06 27.5 -2.85542e-06C12.3123 -4.18317e-06 3.28059e-06 12.3122 1.95283e-06 27.5C6.25073e-07 42.6878 12.3122 55 27.5 55ZM35.5 32.5C36.2376 32.5 36.9153 32.1195 37.2634 31.5097C37.6114 30.9 37.5733 30.1602 37.1641 29.585L29.164 18.335C28.7933 17.8132 28.1688 17.5 27.5 17.5C26.8313 17.5 26.2068 17.8132 25.836 18.335L17.836 29.585C17.4268 30.1602 17.3885 30.9 17.7367 31.5097C18.0847 32.1195 18.7625 32.5 19.5 32.5L35.5 32.5Z" fill="#293139"/>
</svg>
